<svg viewBox="0 0 1024 1024" xmlns="http://www.w3.org/2000/svg"><path d="M512 16C238.066 16 16 238.066 16 512s222.066 496 496 496 496-222.066 496-496S785.934 16 512 16z m0 96c221.064 0 400 178.902 400 400 0 221.064-178.902 400-400 400-221.064 0-400-178.902-400-400 0-221.064 178.902-400 400-400m280.408 260.534l-45.072-45.436c-9.334-9.41-24.53-9.472-33.94-0.136L430.692 607.394l-119.584-120.554c-9.334-9.41-24.53-9.472-33.94-0.138l-45.438 45.072c-9.41 9.334-9.472 24.53-0.136 33.942l181.562 183.032c9.334 9.41 24.53 9.472 33.94 0.136l345.178-342.408c9.408-9.336 9.468-24.532 0.134-33.942z" fill="currentColor"/></svg>
