<svg viewBox="0 0 1024 1024" xmlns="http://www.w3.org/2000/svg"><path d="M512 170.666667a341.333333 341.333333 0 1 0 0 682.666666 341.333333 341.333333 0 0 0 0-682.666666zM85.333333 512C85.333333 276.352 276.352 85.333333 512 85.333333s426.666667 191.018667 426.666667 426.666667-191.018667 426.666667-426.666667 426.666667S85.333333 747.648 85.333333 512z m426.666667-256a42.666667 42.666667 0 0 1 42.666667 42.666667v195.669333l115.498666 115.498667a42.666667 42.666667 0 0 1-60.330666 60.330666l-128-128A42.666667 42.666667 0 0 1 469.333333 512V298.666667a42.666667 42.666667 0 0 1 42.666667-42.666667z" fill="currentColor"/></svg>
