<svg viewBox="0 0 1024 1024" xmlns="http://www.w3.org/2000/svg"><path d="M545.718857 130.608762c11.337143 6.265905 20.699429 15.555048 26.989714 26.819048l345.014858 617.667047a68.87619 68.87619 0 0 1-26.989715 93.915429c-10.313143 5.705143-21.942857 8.704-33.718857 8.704H166.985143A69.266286 69.266286 0 0 1 97.52381 808.643048c0-11.751619 2.998857-23.28381 8.752761-33.548191l344.990477-617.642667a69.656381 69.656381 0 0 1 94.451809-26.819047zM512 191.000381L166.985143 808.643048H856.990476L512 191.000381zM546.718476 670.47619v69.071239h-69.461333V670.47619h69.485714z m0-298.374095v252.318476h-69.461333V372.102095h69.485714z" fill="currentColor"/></svg>
